M48
INCH
T90C0.020
T89C0.030
T88C0.028
T87C0.035
T86C0.038
%
T90
X021000Y012685
X021500Y012685
X019500Y011685
X022500Y013185
X020000Y009685
X022500Y008685
X020000Y008685
X017000Y007685
X023500Y007685
X020500Y007685
X023000Y012685
X029000Y011185
X024000Y005185
X018000Y001685
X023500Y005185
X024500Y003685
X025500Y004685
X032000Y004185
X032000Y004685
X026500Y004185
X007000Y006185
X009000Y007185
X009500Y007685
X008000Y013685
X011000Y010185
X012500Y010185
T88
X014000Y016185
X013000Y016185
X012000Y016185
X012000Y013185
X013000Y013185
X014000Y013185
X015000Y013185
X015000Y016185
X012000Y005685
X013000Y005685
X014000Y005685
X015000Y005685
X015000Y008685
X014000Y008685
X013000Y008685
X012000Y008685
X016000Y013185
X017000Y013185
X018000Y013185
X016000Y005685
X017000Y005685
X018000Y005685
X018000Y008685
X017000Y008685
X016000Y008685
X018000Y016185
X017000Y016185
X016000Y016185
T89
X016500Y002185
X016500Y001185
T87
X010698Y014182
X010698Y016182
X010750Y006685
X010750Y008685
X037795Y003543
T86
X002000Y018185
X002000Y017185
X002000Y016185
X003000Y018185
X003000Y017185
X003000Y016185
X003000Y015185
X003000Y014185
X003000Y013185
X002000Y015185
X002000Y014185
X002000Y013185
X002000Y012185
X003000Y012185
X002000Y011185
X002000Y010185
X002000Y009185
X003000Y011185
X003000Y010185
X003000Y009185
X003000Y008185
X003000Y007185
X003000Y006185
X002000Y008185
X002000Y007185
X002000Y006185
X002000Y005185
X003000Y005185
X003000Y004185
X003000Y003185
X003000Y002185
X002000Y004185
X002000Y003185
X002000Y002185
X007000Y003685
X007728Y006942
X009000Y005935
X007000Y014185
X007000Y017185
X007000Y016185
X007000Y015185
X007000Y013185
X007000Y012185
X007000Y011185
X007000Y010185
X007000Y009185
X010750Y012935
X024000Y001185
X025000Y001185
X026000Y001185
X024000Y002185
X025000Y002185
X026000Y002185
X027000Y002185
X028000Y002185
X029000Y002185
X027000Y001185
X028000Y001185
X029000Y001185
X030000Y001185
X025500Y012185
X025500Y013185
X025500Y009185
X025500Y010185
X026250Y007435
X029500Y012185
X029500Y014185
X029500Y013185
X029500Y009185
X029500Y010185
X025500Y014185
X021000Y001185
X021000Y002185
X022000Y001185
X022000Y002185
X021250Y003935
X019000Y001185
X019000Y002185
X020000Y001185
X020000Y002185
X020250Y005685
X023000Y001185
X023000Y002185
X023250Y003935
X030000Y002185
X031000Y001185
X032000Y001185
X033000Y001185
X031000Y002185
X032000Y002185
X033000Y002185
X034000Y002185
X035000Y002185
X036000Y002185
X034000Y001185
X035000Y001185
X036000Y001185
X037000Y001185
X037000Y002185
X038000Y002185
X038000Y001185
X038000Y006685
X038000Y007685
X038000Y005685
X034000Y006685
X034000Y007685
X034000Y005685
X034000Y011185
X034000Y010185
X034000Y015685
X034000Y017685
X034000Y016685
X038000Y011185
X038000Y010185
X038000Y015685
X038000Y017685
X038000Y016685
X016750Y009935
X017250Y018185
M30
