G04 start of page 12 for group -4062 idx -4062 *
G04 Title: (unknown), soldermask *
G04 Creator: pcb 20110918 *
G04 CreationDate: Wed 07 Dec 2016 14:25:13 GMT UTC *
G04 For: jasper *
G04 Format: Gerber/RS-274X *
G04 PCB-Dimensions: 393701 196850 *
G04 PCB-Coordinate-Origin: lower left *
%MOIN*%
%FSLAX25Y25*%
%LNBOTTOMMASK*%
%ADD100C,0.0740*%
%ADD99C,0.1100*%
%ADD98C,0.0860*%
%ADD97C,0.0660*%
%ADD96C,0.0001*%
G54D96*G36*
X16700Y185150D02*Y178550D01*
X23300D01*
Y185150D01*
X16700D01*
G37*
G54D97*X20000Y171850D03*
Y161850D03*
X30000Y181850D03*
Y171850D03*
Y161850D03*
Y151850D03*
Y141850D03*
Y131850D03*
X20000Y151850D03*
Y141850D03*
Y131850D03*
Y121850D03*
X30000D03*
X20000Y111850D03*
Y101850D03*
Y91850D03*
X30000Y111850D03*
Y101850D03*
Y91850D03*
Y81850D03*
Y71850D03*
Y61850D03*
X20000Y81850D03*
Y71850D03*
Y61850D03*
Y51850D03*
X30000D03*
Y41850D03*
Y31850D03*
Y21850D03*
X20000Y41850D03*
Y31850D03*
Y21850D03*
G54D98*X70000Y36850D03*
X77283Y69419D03*
X90000Y59350D03*
G54D96*G36*
X66700Y145150D02*Y138550D01*
X73300D01*
Y145150D01*
X66700D01*
G37*
G36*
Y175150D02*Y168550D01*
X73300D01*
Y175150D01*
X66700D01*
G37*
G54D97*X70000Y161850D03*
Y151850D03*
Y131850D03*
G54D99*X106980Y141819D03*
Y161819D03*
G54D97*X70000Y121850D03*
G54D96*G36*
X66700Y115150D02*Y108550D01*
X73300D01*
Y115150D01*
X66700D01*
G37*
G54D97*X70000Y101850D03*
Y91850D03*
X140000Y161850D03*
X130000D03*
X120000D03*
G54D98*X107500Y129350D03*
G54D96*G36*
X116700Y135150D02*Y128550D01*
X123300D01*
Y135150D01*
X116700D01*
G37*
G54D97*X130000Y131850D03*
X140000D03*
X150000D03*
Y161850D03*
G54D96*G36*
X116700Y60150D02*Y53550D01*
X123300D01*
Y60150D01*
X116700D01*
G37*
G54D97*X130000Y56850D03*
X140000D03*
G54D99*X107500Y66850D03*
G54D97*X150000Y56850D03*
Y86850D03*
X140000D03*
X130000D03*
X120000D03*
G54D99*X107500D03*
G54D97*X240000Y11850D03*
X250000D03*
X260000D03*
X240000Y21850D03*
X250000D03*
X260000D03*
X270000D03*
X280000D03*
X290000D03*
X270000Y11850D03*
X280000D03*
X290000D03*
X300000D03*
G54D100*X255000Y121850D03*
Y131850D03*
Y91850D03*
Y101850D03*
G54D98*X262500Y74350D03*
G54D100*X295000Y121850D03*
Y141850D03*
Y131850D03*
Y91850D03*
Y101850D03*
X255000Y141850D03*
G54D97*X210000Y11850D03*
Y21850D03*
X220000Y11850D03*
Y21850D03*
G54D98*X212500Y39350D03*
G54D96*G36*
X186700Y15150D02*Y8550D01*
X193300D01*
Y15150D01*
X186700D01*
G37*
G54D97*X190000Y21850D03*
X200000Y11850D03*
Y21850D03*
G54D98*X202500Y56850D03*
G54D97*X230000Y11850D03*
Y21850D03*
G54D98*X232500Y39350D03*
G54D96*G36*
X161700Y25150D02*Y18550D01*
X168300D01*
Y25150D01*
X161700D01*
G37*
G54D97*X165000Y11850D03*
X300000Y21850D03*
X310000Y11850D03*
X320000D03*
X330000D03*
X310000Y21850D03*
X320000D03*
X330000D03*
X340000D03*
X350000D03*
X360000D03*
X340000Y11850D03*
X350000D03*
X360000D03*
X370000D03*
Y21850D03*
X380000D03*
Y11850D03*
G54D100*Y66850D03*
Y76850D03*
Y56850D03*
X340000Y66850D03*
Y76850D03*
Y56850D03*
Y111850D03*
Y101850D03*
Y156850D03*
Y176850D03*
Y166850D03*
X380000Y111850D03*
Y101850D03*
Y156850D03*
Y176850D03*
Y166850D03*
G54D97*X160000Y131850D03*
X170000D03*
X180000D03*
X160000Y56850D03*
X170000D03*
X180000D03*
Y86850D03*
X170000D03*
X160000D03*
G54D98*X167500Y99350D03*
G54D97*X180000Y161850D03*
X170000D03*
X160000D03*
G54D98*X172500Y181850D03*
M02*
