G04 start of page 13 for group -4079 idx -4079 *
G04 Title: (unknown), topsilk *
G04 Creator: pcb 20110918 *
G04 CreationDate: Wed 07 Dec 2016 14:25:13 GMT UTC *
G04 For: jasper *
G04 Format: Gerber/RS-274X *
G04 PCB-Dimensions: 393701 196850 *
G04 PCB-Coordinate-Origin: lower left *
%MOIN*%
%FSLAX25Y25*%
%LNTOPSILK*%
%ADD103C,0.0200*%
%ADD102C,0.0100*%
%ADD101C,0.0001*%
G54D101*G36*
X112419Y44407D02*X112029Y43458D01*
X111085Y43062D01*
X110135Y43458D01*
X109744Y44407D01*
X110135Y45351D01*
X111085Y45737D01*
X112029Y45351D01*
X112419Y44407D01*
G37*
G36*
X126894D02*X126498Y43458D01*
X125554Y43062D01*
X124610Y43458D01*
X124219Y44407D01*
X124610Y45351D01*
X125554Y45737D01*
X126498Y45351D01*
X126894Y44407D01*
G37*
G36*
X132791Y42118D02*X134083Y41109D01*
X133459Y39622D01*
X132498Y39492D01*
X131690Y40018D01*
X131478Y40610D01*
X131305Y41120D01*
X130741Y41282D01*
X130176Y41521D01*
X129780Y41998D01*
X129634Y42671D01*
X129292Y43046D01*
X128918Y43089D01*
X128614Y43192D01*
X127947Y43925D01*
Y44912D01*
X128652Y45606D01*
X129639Y45644D01*
X130426Y44868D01*
X130496Y44521D01*
X130551Y44207D01*
X130990Y43930D01*
X131419Y44234D01*
X131527Y44841D01*
X132292Y45639D01*
X133274Y45633D01*
X134001Y44972D01*
X134045Y43995D01*
X133437Y43230D01*
X132808Y43062D01*
X132368Y42796D01*
X132791Y42118D01*
G37*
G36*
X121935Y45737D02*X123227Y44749D01*
X122608Y43246D01*
X121995Y43073D01*
X121545Y42845D01*
X121414Y42237D01*
X121116Y41695D01*
X120590Y41337D01*
X119988Y41223D01*
X119662Y40816D01*
X119510Y40181D01*
X118740Y39541D01*
X117741Y39584D01*
X117042Y40431D01*
X116911Y41006D01*
X116445Y41277D01*
X115843Y41434D01*
X115403Y41857D01*
X115192Y42454D01*
X115013Y42937D01*
X114421Y43116D01*
X113857Y43366D01*
X113369Y44429D01*
X113803Y45362D01*
X114763Y45731D01*
X115761Y45216D01*
X116005Y44635D01*
X116152Y44098D01*
X116938Y44217D01*
X117063Y44847D01*
X117411Y45384D01*
X119271Y45330D01*
X119597Y44798D01*
X119700Y44212D01*
X120492Y44104D01*
X120639Y44679D01*
X120904Y45243D01*
X121935Y45737D01*
G37*
G36*
X117845Y42590D02*X118317Y43062D01*
X118794Y42590D01*
X118322Y42118D01*
X117845Y42590D01*
G37*
G36*
X107466Y45737D02*X108621Y45069D01*
X108594Y43697D01*
X107683Y43094D01*
X107173Y42959D01*
X106967Y42400D01*
X106370Y41461D01*
X105762Y41277D01*
X105285Y41065D01*
X105128Y40458D01*
X104856Y39910D01*
X103782Y39454D01*
X102865Y39910D01*
X102518Y40875D01*
X103044Y41857D01*
X103652Y42091D01*
X104173Y42264D01*
X103999Y43029D01*
X103370Y43149D01*
X102860Y43496D01*
X102936Y45373D01*
X104797Y45335D01*
X105122Y44809D01*
X105225Y44217D01*
X106017Y44104D01*
X106164Y44679D01*
X106435Y45243D01*
X107466Y45737D01*
G37*
G36*
X113922Y39828D02*X114182Y39297D01*
X113938Y38157D01*
X113461Y37761D01*
X112815Y37636D01*
X112441Y37284D01*
X112311Y36649D01*
X111459Y35900D01*
X110292Y36090D01*
X109891Y36562D01*
X109739Y37208D01*
X109414Y37604D01*
X109066Y37658D01*
X108757Y37745D01*
X108008Y38570D01*
X108182Y39741D01*
X108643Y40154D01*
X109289Y40311D01*
X109707Y40615D01*
X109761Y40957D01*
X109848Y41282D01*
X110634Y42042D01*
X111627Y41988D01*
X112327Y41266D01*
X112408Y40935D01*
X112457Y40604D01*
X112875Y40311D01*
X113922Y39828D01*
G37*
G36*
X111085Y38505D02*X110607Y38971D01*
X111079Y39443D01*
X111557Y38971D01*
X111085Y38505D01*
G37*
G36*
X128397Y39828D02*X128690Y38857D01*
X128088Y37848D01*
X127475Y37664D01*
X127002Y37457D01*
X126775Y36616D01*
X125934Y35900D01*
X124767Y36090D01*
X124366Y36562D01*
X124214Y37208D01*
X123888Y37604D01*
X123541Y37658D01*
X123232Y37745D01*
X122483Y38570D01*
X122657Y39741D01*
X123113Y40154D01*
X123764Y40311D01*
X124181Y40615D01*
X124230Y40957D01*
X124317Y41282D01*
X125109Y42042D01*
X126102Y41988D01*
X126802Y41266D01*
X126883Y40935D01*
X126932Y40604D01*
X127350Y40311D01*
X128397Y39828D01*
G37*
G36*
X125554Y38505D02*X125082Y38971D01*
X125554Y39443D01*
X126026Y38971D01*
X125554Y38505D01*
G37*
G36*
X134126Y29932D02*X133735Y28988D01*
X132791Y28592D01*
X131847Y28988D01*
X131457Y29932D01*
X131847Y30877D01*
X132791Y31267D01*
X133735Y30877D01*
X134126Y29932D01*
G37*
G36*
Y26308D02*X133735Y25364D01*
X132791Y24974D01*
X131847Y25364D01*
X131457Y26308D01*
X131847Y27252D01*
X132791Y27643D01*
X133735Y27252D01*
X134126Y26308D01*
G37*
G36*
Y22690D02*X133735Y21746D01*
X132791Y21355D01*
X131847Y21746D01*
X131457Y22690D01*
X131847Y23639D01*
X132791Y24030D01*
X133735Y23639D01*
X134126Y22690D01*
G37*
G36*
Y19071D02*X133735Y18127D01*
X132791Y17736D01*
X131847Y18127D01*
X131457Y19071D01*
X131847Y20015D01*
X132791Y20406D01*
X133735Y20015D01*
X134126Y19071D01*
G37*
G36*
Y15452D02*X133735Y14514D01*
X132791Y14118D01*
X131847Y14514D01*
X131457Y15452D01*
X131847Y16402D01*
X132791Y16798D01*
X133735Y16402D01*
X134126Y15452D01*
G37*
G36*
X110613Y10032D02*X110216Y9088D01*
X109272Y8698D01*
X108328Y9088D01*
X107938Y10032D01*
X108328Y10976D01*
X109272Y11362D01*
X110216Y10976D01*
X110613Y10032D01*
G37*
G36*
X106994D02*X106598Y9088D01*
X105654Y8698D01*
X104710Y9088D01*
X104319Y10032D01*
X104710Y10976D01*
X105654Y11362D01*
X106598Y10976D01*
X106994Y10032D01*
G37*
G36*
X123275Y29932D02*X122879Y28988D01*
X121935Y28592D01*
X120991Y28988D01*
X120601Y29932D01*
X120991Y30877D01*
X121935Y31267D01*
X122879Y30877D01*
X123275Y29932D01*
G37*
G36*
X107466Y27643D02*X106994Y28115D01*
X107466Y28592D01*
X107938Y28115D01*
X107466Y27643D01*
G37*
G36*
X109278Y29455D02*X108800Y29932D01*
X109272Y30399D01*
X109744Y29932D01*
X109278Y29455D01*
G37*
G36*
X111085Y27643D02*X110613Y28115D01*
X111085Y28592D01*
X111557Y28115D01*
X111085Y27643D01*
G37*
G36*
X114703D02*X114226Y28115D01*
X114698Y28592D01*
X115170Y28115D01*
X114703Y27643D01*
G37*
G36*
X106109Y26173D02*X105518Y25853D01*
X105203Y26449D01*
X105789Y26764D01*
X106109Y26173D01*
G37*
G36*
X105659Y29455D02*X105182Y29932D01*
X105654Y30399D01*
X106126Y29932D01*
X105659Y29455D01*
G37*
G36*
Y33074D02*X105182Y33540D01*
X105654Y34018D01*
X106126Y33546D01*
X105659Y33074D01*
G37*
G36*
X107466Y32206D02*X107938Y31734D01*
X107466Y31267D01*
X106994Y31734D01*
X107466Y32206D01*
G37*
G36*
X107916Y24361D02*X107330Y24046D01*
X107010Y24637D01*
X107596Y24957D01*
X107916Y24361D01*
G37*
G36*
X109744Y22690D02*X109283Y22218D01*
X108800Y22679D01*
X109262Y23167D01*
X109744Y22690D01*
G37*
G36*
X109278Y25836D02*X108800Y26308D01*
X109272Y26780D01*
X109744Y26308D01*
X109278Y25836D01*
G37*
G36*
X111557Y20878D02*X111095Y20406D01*
X110607Y20872D01*
X111068Y21355D01*
X111557Y20878D01*
G37*
G36*
X111085Y24030D02*X110613Y24502D01*
X111085Y24974D01*
X111557Y24496D01*
X111085Y24030D01*
G37*
G36*
X112419Y22706D02*X112902Y23167D01*
X113363Y22684D01*
X112886Y22218D01*
X112419Y22706D01*
G37*
G36*
X113363Y19071D02*X112902Y18599D01*
X112419Y19066D01*
X112875Y19543D01*
X113363Y19071D01*
G37*
G36*
Y26303D02*X112886Y25836D01*
X112419Y26319D01*
X112902Y26780D01*
X113363Y26303D01*
G37*
G36*
X114703Y24030D02*X114226Y24496D01*
X114703Y24974D01*
X115175Y24496D01*
X114703Y24030D01*
G37*
G36*
X116515Y25836D02*X116038Y26308D01*
X116510Y26780D01*
X116982Y26308D01*
X116515Y25836D01*
G37*
G36*
X132791Y9555D02*X133649Y9219D01*
X134104Y8405D01*
X133898Y7499D01*
X133155Y6951D01*
X132086Y7086D01*
X131473Y8117D01*
X131213Y8611D01*
X130632Y8741D01*
X129780Y9468D01*
X129645Y10032D01*
X129325Y10456D01*
X128798Y10564D01*
X128326Y10803D01*
X127979Y11248D01*
X127833Y11877D01*
X127485Y12273D01*
X126878Y12403D01*
X126124Y13212D01*
X125972Y13846D01*
X125538Y14101D01*
X125142Y13819D01*
X125006Y13174D01*
X124236Y12403D01*
X123449Y12175D01*
X123292Y11774D01*
X123639Y11378D01*
X124203Y11269D01*
X124621Y11031D01*
X125055Y10206D01*
X124735Y9164D01*
X123747Y8698D01*
X122684Y9219D01*
X122451Y9799D01*
X122299Y10320D01*
X121778Y10456D01*
X121469Y9994D01*
X121295Y9354D01*
X120888Y8931D01*
X119092Y9219D01*
X119179Y10955D01*
X119564Y11226D01*
X120226Y11372D01*
X120590Y11785D01*
X120725Y12360D01*
X121648Y13119D01*
X122239Y13277D01*
X122391Y13760D01*
X122028Y14096D01*
X121355Y14253D01*
X120644Y15219D01*
X120454Y15789D01*
X119950Y15875D01*
X119657Y15441D01*
X119483Y14790D01*
X119060Y14335D01*
X118447Y14139D01*
X117948Y13906D01*
X117807Y13326D01*
X117101Y12441D01*
X116494Y12295D01*
X116070Y11975D01*
X116206Y11486D01*
X116803Y11302D01*
X117682Y10645D01*
X117769Y9647D01*
X117139Y8860D01*
X116157Y8757D01*
X115365Y9343D01*
X115202Y9815D01*
X115088Y10266D01*
X114676Y10488D01*
X114264Y10168D01*
X114155Y9598D01*
X113922Y9170D01*
X113097Y8719D01*
X112115Y8964D01*
X111584Y9810D01*
X111877Y10879D01*
X112376Y11248D01*
X112989Y11367D01*
X113341Y11752D01*
X113477Y12349D01*
X114421Y13114D01*
X114985Y13266D01*
X115148Y13787D01*
X114416Y14161D01*
X113569Y14720D01*
X113385Y15268D01*
X113190Y15805D01*
X112669Y15946D01*
X112164Y16147D01*
X111573Y17134D01*
X111388Y17612D01*
X110781Y17763D01*
X109869Y18523D01*
X109739Y19114D01*
X109370Y19521D01*
X108735Y19651D01*
X108280Y19982D01*
X108008Y20465D01*
X107884Y21062D01*
X107444Y21355D01*
X106847Y21502D01*
X106381Y21898D01*
X106158Y22484D01*
X105996Y22993D01*
X105426Y23200D01*
X104455Y23943D01*
X104287Y24616D01*
X103967Y24947D01*
X103315Y25082D01*
X102903Y25364D01*
X102529Y26232D01*
X102871Y27204D01*
X103326Y27529D01*
X103706Y27621D01*
X104308Y28023D01*
X104124Y28479D01*
X103516Y28641D01*
X102659Y29303D01*
X102654Y30518D01*
X103473Y31186D01*
X104026Y31305D01*
X104308Y31766D01*
X103972Y32173D01*
X103375Y32293D01*
X102664Y32954D01*
X102605Y34007D01*
X103326Y34761D01*
X103923Y34897D01*
X104308Y35314D01*
X104048Y35759D01*
X103402Y35906D01*
X102643Y36627D01*
X102637Y37669D01*
X103299Y38353D01*
X104259Y38407D01*
X104997Y37837D01*
X105144Y37403D01*
X105241Y36964D01*
X106267Y36535D01*
X106950Y35651D01*
X107086Y35076D01*
X107558Y34870D01*
X108562Y34300D01*
X108790Y33698D01*
X108985Y33166D01*
X109511Y33036D01*
X110092Y32786D01*
X110607Y31793D01*
X110862Y31327D01*
X111410Y31213D01*
X112278Y30518D01*
X112430Y29889D01*
X112745Y29477D01*
X113255Y29634D01*
X113396Y30139D01*
X114009Y31061D01*
X115143Y31170D01*
X115951Y30366D01*
X116081Y29792D01*
X116504Y29461D01*
X116938Y29748D01*
X117052Y30329D01*
X117725Y31099D01*
X118761Y31164D01*
X119494Y30513D01*
X119575Y29520D01*
X118913Y28734D01*
X118311Y28592D01*
X117877Y28267D01*
X118018Y27773D01*
X118604Y27600D01*
X119543Y26824D01*
X119488Y25674D01*
X118555Y24995D01*
X118018Y24849D01*
X117877Y24339D01*
X118295Y24035D01*
X118843Y23905D01*
X119602Y23053D01*
X119711Y22484D01*
X120172Y22212D01*
X120769Y22044D01*
X121203Y21664D01*
X121425Y21154D01*
X121545Y20628D01*
X122038Y20395D01*
X122586Y20237D01*
X123237Y19304D01*
X123395Y18767D01*
X123943Y18561D01*
X124550Y18333D01*
X124957Y17845D01*
X125098Y17205D01*
X125478Y16809D01*
X126064Y16684D01*
X126568Y16320D01*
X126840Y15740D01*
X126981Y15197D01*
X127491Y14959D01*
X128093Y14758D01*
X128516Y14313D01*
X128701Y13656D01*
X128956Y13228D01*
X129601Y13103D01*
X130410Y12344D01*
X130529Y11709D01*
X130920Y11372D01*
X131386Y11600D01*
X131511Y12224D01*
X132243Y13054D01*
X133225Y13081D01*
X133985Y12441D01*
X134055Y11465D01*
X133459Y10678D01*
X132813Y10499D01*
X132374Y10244D01*
X132791Y9555D01*
G37*
G36*
X116515Y22218D02*X116038Y22690D01*
X116510Y23167D01*
X116982Y22690D01*
X116515Y22218D01*
G37*
G36*
X118317Y20411D02*X117845Y20878D01*
X118317Y21355D01*
X118789Y20883D01*
X118317Y20411D01*
G37*
G36*
X120129Y36692D02*X121382Y35797D01*
X121219Y34598D01*
X120763Y34181D01*
X120156Y34018D01*
X119705Y33741D01*
X119592Y33161D01*
X118870Y32336D01*
X117882Y32303D01*
X117134Y32927D01*
X116982Y33557D01*
X116673Y33985D01*
X116032Y34105D01*
X115522Y34452D01*
X115598Y36329D01*
X117459Y36291D01*
X117785Y35759D01*
X117888Y35168D01*
X118680Y35054D01*
X118827Y35635D01*
X119098Y36193D01*
X120129Y36692D01*
G37*
G36*
X132791Y34880D02*X133893Y34262D01*
X133573Y32482D01*
X131728Y32743D01*
X131506Y33275D01*
X131321Y33871D01*
X130583Y33757D01*
X130361Y32944D01*
X129509Y32265D01*
X128907Y32113D01*
X128679Y31636D01*
X128467Y30996D01*
X128012Y30573D01*
X127382Y30405D01*
X126937Y30112D01*
X126823Y29537D01*
X126552Y29043D01*
X124740Y28869D01*
X124458Y30692D01*
X124919Y31099D01*
X125521Y31256D01*
X125977Y31544D01*
X126080Y32108D01*
X126845Y32960D01*
X127475Y33101D01*
X127827Y33481D01*
X127968Y34126D01*
X128370Y34609D01*
X128939Y34859D01*
X129504Y35027D01*
X129666Y35526D01*
X129894Y36128D01*
X130361Y36535D01*
X130985Y36692D01*
X131419Y36996D01*
X131522Y37582D01*
X132260Y38391D01*
X133247Y38401D01*
X133990Y37750D01*
X134050Y36768D01*
X133442Y35998D01*
X132813Y35835D01*
X132368Y35559D01*
X132791Y34880D01*
G37*
G36*
X114226Y20894D02*X114709Y21355D01*
X115175Y20878D01*
X114698Y20406D01*
X114226Y20894D01*
G37*
G36*
X114703Y16798D02*X114226Y17264D01*
X114692Y17736D01*
X115170Y17281D01*
X114703Y16798D01*
G37*
G36*
X116515Y14980D02*X116038Y15452D01*
X116510Y15930D01*
X116982Y15452D01*
X116515Y14980D01*
G37*
G36*
Y18599D02*X116038Y19071D01*
X116510Y19543D01*
X116982Y19076D01*
X116515Y18599D01*
G37*
G36*
X118317Y16798D02*X117845Y17264D01*
X118317Y17736D01*
X118794Y17264D01*
X118317Y16798D01*
G37*
G36*
X120129Y18599D02*X119657Y19071D01*
X120129Y19543D01*
X120601Y19076D01*
X120129Y18599D01*
G37*
G36*
X123275Y15452D02*X123747Y15930D01*
X124219Y15458D01*
X123747Y14980D01*
X123275Y15452D01*
G37*
G36*
X121935Y16798D02*X121463Y17264D01*
X121935Y17736D01*
X122413Y17264D01*
X121935Y16798D01*
G37*
G54D102*X225000Y189350D02*Y166850D01*
X325000D01*
Y189350D01*
X225000D01*
X227500Y181900D02*X229480D01*
X229975Y182395D01*
Y183583D02*Y182395D01*
X229480Y184078D02*X229975Y183583D01*
X227995Y184078D02*X229480D01*
X227995Y185860D02*Y181900D01*
X227500Y185860D02*X229480D01*
X229975Y185365D01*
Y184573D01*
X229480Y184078D02*X229975Y184573D01*
X231163Y181900D02*X233143D01*
X233638Y182395D01*
Y183583D02*Y182395D01*
X233143Y184078D02*X233638Y183583D01*
X231658Y184078D02*X233143D01*
X231658Y185860D02*Y181900D01*
X231163Y185860D02*X233143D01*
X233638Y185365D01*
Y184573D01*
X233143Y184078D02*X233638Y184573D01*
X235519Y181900D02*X236806D01*
X234826Y182593D02*X235519Y181900D01*
X234826Y185167D02*Y182593D01*
Y185167D02*X235519Y185860D01*
X236806D01*
X237994D02*Y181900D01*
Y185860D02*X239974D01*
X237994Y184078D02*X239479D01*
X241657Y185860D02*Y181900D01*
X242944Y185860D02*X243637Y185167D01*
Y182593D01*
X242944Y181900D02*X243637Y182593D01*
X241162Y181900D02*X242944D01*
X241162Y185860D02*X242944D01*
X245518Y181900D02*X246805D01*
X244825Y182593D02*X245518Y181900D01*
X244825Y185167D02*Y182593D01*
Y185167D02*X245518Y185860D01*
X246805D01*
X305000D02*X306980D01*
X307475Y185365D01*
Y184375D01*
X306980Y183880D02*X307475Y184375D01*
X305495Y183880D02*X306980D01*
X305495Y185860D02*Y181900D01*
X306287Y183880D02*X307475Y181900D01*
X308663Y184078D02*X310148D01*
X308663Y181900D02*X310643D01*
X308663Y185860D02*Y181900D01*
Y185860D02*X310643D01*
X311831D02*X312821Y181900D01*
X313811Y185860D01*
X316781Y184870D02*Y181900D01*
Y184870D02*X317474Y185860D01*
X318563D01*
X319256Y184870D01*
Y181900D01*
X316781Y183880D02*X319256D01*
X300000Y172395D02*X300495Y171900D01*
X300000Y175365D02*X300495Y175860D01*
X300000Y175365D02*Y172395D01*
X302376Y171900D02*X303663D01*
X301683Y172593D02*X302376Y171900D01*
X301683Y175167D02*Y172593D01*
Y175167D02*X302376Y175860D01*
X303663D01*
X304851D02*X305346Y175365D01*
Y172395D01*
X304851Y171900D02*X305346Y172395D01*
X308316Y175365D02*X308811Y175860D01*
X310296D01*
X310791Y175365D01*
Y174375D01*
X308316Y171900D02*X310791Y174375D01*
X308316Y171900D02*X310791D01*
X311979Y172395D02*X312474Y171900D01*
X311979Y175365D02*Y172395D01*
Y175365D02*X312474Y175860D01*
X313464D01*
X313959Y175365D01*
Y172395D01*
X313464Y171900D02*X313959Y172395D01*
X312474Y171900D02*X313464D01*
X311979Y172890D02*X313959Y174870D01*
X315147Y175068D02*X315939Y175860D01*
Y171900D01*
X315147D02*X316632D01*
X319305Y175860D02*X319800Y175365D01*
X318315Y175860D02*X319305D01*
X317820Y175365D02*X318315Y175860D01*
X317820Y175365D02*Y172395D01*
X318315Y171900D01*
X319305Y174078D02*X319800Y173583D01*
X317820Y174078D02*X319305D01*
X318315Y171900D02*X319305D01*
X319800Y172395D01*
Y173583D02*Y172395D01*
X228193Y175860D02*X228985D01*
Y172395D01*
X228490Y171900D02*X228985Y172395D01*
X227995Y171900D02*X228490D01*
X227500Y172395D02*X227995Y171900D01*
X227500Y172890D02*Y172395D01*
X230173Y174870D02*Y171900D01*
Y174870D02*X230866Y175860D01*
X231955D01*
X232648Y174870D01*
Y171900D01*
X230173Y173880D02*X232648D01*
X235816Y175860D02*X236311Y175365D01*
X234331Y175860D02*X235816D01*
X233836Y175365D02*X234331Y175860D01*
X233836Y175365D02*Y174375D01*
X234331Y173880D01*
X235816D01*
X236311Y173385D01*
Y172395D01*
X235816Y171900D02*X236311Y172395D01*
X234331Y171900D02*X235816D01*
X233836Y172395D02*X234331Y171900D01*
X237994Y175860D02*Y171900D01*
X237499Y175860D02*X239479D01*
X239974Y175365D01*
Y174375D01*
X239479Y173880D02*X239974Y174375D01*
X237994Y173880D02*X239479D01*
X241162Y174078D02*X242647D01*
X241162Y171900D02*X243142D01*
X241162Y175860D02*Y171900D01*
Y175860D02*X243142D01*
X244330D02*X246310D01*
X246805Y175365D01*
Y174375D01*
X246310Y173880D02*X246805Y174375D01*
X244825Y173880D02*X246310D01*
X244825Y175860D02*Y171900D01*
X245617Y173880D02*X246805Y171900D01*
X249775Y175860D02*X251755D01*
X252250Y175365D01*
Y174375D01*
X251755Y173880D02*X252250Y174375D01*
X250270Y173880D02*X251755D01*
X250270Y175860D02*Y171900D01*
X251062Y173880D02*X252250Y171900D01*
X253438Y174078D02*X254923D01*
X253438Y171900D02*X255418D01*
X253438Y175860D02*Y171900D01*
Y175860D02*X255418D01*
X256606D02*Y171900D01*
Y175860D02*X259081Y171900D01*
Y175860D02*Y171900D01*
X260269Y175365D02*Y172395D01*
Y175365D02*X260764Y175860D01*
X261754D01*
X262249Y175365D01*
Y172395D01*
X261754Y171900D02*X262249Y172395D01*
X260764Y171900D02*X261754D01*
X260269Y172395D02*X260764Y171900D01*
X263437Y175860D02*Y173880D01*
X263932Y171900D01*
X264922Y173880D01*
X265912Y171900D01*
X266407Y173880D01*
Y175860D02*Y173880D01*
X267595D02*X269575D01*
X271456Y171900D02*X272743D01*
X270763Y172593D02*X271456Y171900D01*
X270763Y175167D02*Y172593D01*
Y175167D02*X271456Y175860D01*
X272743D01*
X273931D02*Y171900D01*
X275911D01*
X277099Y174870D02*Y171900D01*
Y174870D02*X277792Y175860D01*
X278881D01*
X279574Y174870D01*
Y171900D01*
X277099Y173880D02*X279574D01*
X280762Y175860D02*X282742D01*
X283237Y175365D01*
Y174375D01*
X282742Y173880D02*X283237Y174375D01*
X281257Y173880D02*X282742D01*
X281257Y175860D02*Y171900D01*
X282049Y173880D02*X283237Y171900D01*
X284425Y175860D02*Y171900D01*
Y173880D02*X286405Y175860D01*
X284425Y173880D02*X286405Y171900D01*
X287593Y174078D02*X289078D01*
X287593Y171900D02*X289573D01*
X287593Y175860D02*Y171900D01*
Y175860D02*X289573D01*
X260000Y35860D02*X261980D01*
X262475Y35365D01*
Y34375D01*
X261980Y33880D02*X262475Y34375D01*
X260495Y33880D02*X261980D01*
X260495Y35860D02*Y31900D01*
X261287Y33880D02*X262475Y31900D01*
X263663Y34870D02*Y31900D01*
Y34870D02*X264356Y35860D01*
X265445D01*
X266138Y34870D01*
Y31900D01*
X263663Y33880D02*X266138D01*
X269306Y35860D02*X269801Y35365D01*
X267821Y35860D02*X269306D01*
X267326Y35365D02*X267821Y35860D01*
X267326Y35365D02*Y34375D01*
X267821Y33880D01*
X269306D01*
X269801Y33385D01*
Y32395D01*
X269306Y31900D02*X269801Y32395D01*
X267821Y31900D02*X269306D01*
X267326Y32395D02*X267821Y31900D01*
X271484Y35860D02*Y31900D01*
X270989Y35860D02*X272969D01*
X273464Y35365D01*
Y34375D01*
X272969Y33880D02*X273464Y34375D01*
X271484Y33880D02*X272969D01*
X274652Y31900D02*X276632D01*
X277127Y32395D01*
Y33583D02*Y32395D01*
X276632Y34078D02*X277127Y33583D01*
X275147Y34078D02*X276632D01*
X275147Y35860D02*Y31900D01*
X274652Y35860D02*X276632D01*
X277127Y35365D01*
Y34573D01*
X276632Y34078D02*X277127Y34573D01*
X278315Y34078D02*X279800D01*
X278315Y31900D02*X280295D01*
X278315Y35860D02*Y31900D01*
Y35860D02*X280295D01*
X281483D02*X283463D01*
X283958Y35365D01*
Y34375D01*
X283463Y33880D02*X283958Y34375D01*
X281978Y33880D02*X283463D01*
X281978Y35860D02*Y31900D01*
X282770Y33880D02*X283958Y31900D01*
X285146Y35860D02*X287126D01*
X287621Y35365D01*
Y34375D01*
X287126Y33880D02*X287621Y34375D01*
X285641Y33880D02*X287126D01*
X285641Y35860D02*Y31900D01*
X286433Y33880D02*X287621Y31900D01*
X288809Y35860D02*X289799Y33880D01*
X290789Y35860D01*
X289799Y33880D02*Y31900D01*
X294254Y35860D02*Y31900D01*
X293759Y35860D02*X295739D01*
X296234Y35365D01*
Y34375D01*
X295739Y33880D02*X296234Y34375D01*
X294254Y33880D02*X295739D01*
X297422Y35860D02*X298412D01*
X297917D02*Y31900D01*
X297422D02*X298412D01*
X40500Y143350D02*Y139350D01*
X41800Y143350D02*X42500Y142650D01*
Y140050D01*
X41800Y139350D02*X42500Y140050D01*
X40000Y139350D02*X41800D01*
X40000Y143350D02*X41800D01*
X45700D02*X46200Y142850D01*
X44200Y143350D02*X45700D01*
X43700Y142850D02*X44200Y143350D01*
X43700Y142850D02*Y141850D01*
X44200Y141350D01*
X45700D01*
X46200Y140850D01*
Y139850D01*
X45700Y139350D02*X46200Y139850D01*
X44200Y139350D02*X45700D01*
X43700Y139850D02*X44200Y139350D01*
X49200Y139850D02*X49700Y139350D01*
X49200Y142850D02*Y139850D01*
Y142850D02*X49700Y143350D01*
X50700D01*
X51200Y142850D01*
Y139850D01*
X50700Y139350D02*X51200Y139850D01*
X49700Y139350D02*X50700D01*
X49200Y140350D02*X51200Y142350D01*
X40500Y133350D02*Y129350D01*
X41800Y133350D02*X42500Y132650D01*
Y130050D01*
X41800Y129350D02*X42500Y130050D01*
X40000Y129350D02*X41800D01*
X40000Y133350D02*X41800D01*
X45700D02*X46200Y132850D01*
X44200Y133350D02*X45700D01*
X43700Y132850D02*X44200Y133350D01*
X43700Y132850D02*Y131850D01*
X44200Y131350D01*
X45700D01*
X46200Y130850D01*
Y129850D01*
X45700Y129350D02*X46200Y129850D01*
X44200Y129350D02*X45700D01*
X43700Y129850D02*X44200Y129350D01*
X49200Y132550D02*X50000Y133350D01*
Y129350D01*
X49200D02*X50700D01*
X40000Y113350D02*Y109350D01*
X42000D01*
X43200Y112850D02*Y109850D01*
Y112850D02*X43700Y113350D01*
X44700D01*
X45200Y112850D01*
Y109850D01*
X44700Y109350D02*X45200Y109850D01*
X43700Y109350D02*X44700D01*
X43200Y109850D02*X43700Y109350D01*
X46400Y112350D02*Y109350D01*
Y112350D02*X47100Y113350D01*
X48200D01*
X48900Y112350D01*
Y109350D01*
X46400Y111350D02*X48900D01*
X50600Y113350D02*Y109350D01*
X51900Y113350D02*X52600Y112650D01*
Y110050D01*
X51900Y109350D02*X52600Y110050D01*
X50100Y109350D02*X51900D01*
X50100Y113350D02*X51900D01*
X40500Y103350D02*Y99350D01*
X41800Y103350D02*X42500Y102650D01*
Y100050D01*
X41800Y99350D02*X42500Y100050D01*
X40000Y99350D02*X41800D01*
X40000Y103350D02*X41800D01*
X43700D02*X44700D01*
X44200D02*Y99350D01*
X43700D02*X44700D01*
X45900Y103350D02*X47900D01*
X48400Y102850D01*
Y101850D01*
X47900Y101350D02*X48400Y101850D01*
X46400Y101350D02*X47900D01*
X46400Y103350D02*Y99350D01*
X47200Y101350D02*X48400Y99350D01*
X8490Y84350D02*X12450D01*
X8490Y86330D02*Y84350D01*
X10272Y85835D02*Y84350D01*
X8490Y87518D02*X12450D01*
Y89498D02*Y87518D01*
X8985Y90686D02*X11955D01*
X8985D02*X8490Y91181D01*
Y92171D02*Y91181D01*
Y92171D02*X8985Y92666D01*
X11955D01*
X12450Y92171D02*X11955Y92666D01*
X12450Y92171D02*Y91181D01*
X11955Y90686D02*X12450Y91181D01*
X8490Y94349D02*X12450D01*
X8490Y95834D02*Y93854D01*
Y95834D02*X8985Y96329D01*
X9975D01*
X10470Y95834D02*X9975Y96329D01*
X10470Y95834D02*Y94349D01*
X8490Y98012D02*X12450D01*
X8490Y99497D02*Y97517D01*
Y99497D02*X8985Y99992D01*
X9975D01*
X10470Y99497D02*X9975Y99992D01*
X10470Y99497D02*Y98012D01*
X8490Y101180D02*X10470Y102170D01*
X8490Y103160D01*
X10470Y102170D02*X12450D01*
X8490Y106625D02*X12450D01*
X8490Y107912D02*X9183Y108605D01*
X11757D01*
X12450Y107912D02*X11757Y108605D01*
X12450Y107912D02*Y106130D01*
X8490Y107912D02*Y106130D01*
Y111773D02*Y109793D01*
Y111773D02*X8985Y112268D01*
X9975D01*
X10470Y111773D02*X9975Y112268D01*
X10470Y111773D02*Y110288D01*
X8490D02*X12450D01*
X10470Y111080D02*X12450Y112268D01*
X8490Y114446D02*Y113456D01*
Y113951D02*X12450D01*
Y114446D02*Y113456D01*
X8490Y115634D02*X12450Y116624D01*
X8490Y117614D01*
X10272Y120287D02*Y118802D01*
X12450Y120782D02*Y118802D01*
X8490D02*X12450D01*
X8490Y120782D02*Y118802D01*
X42000Y183350D02*X42500Y182850D01*
X40500Y183350D02*X42000D01*
X40000Y182850D02*X40500Y183350D01*
X40000Y182850D02*Y181850D01*
X40500Y181350D01*
X42000D01*
X42500Y180850D01*
Y179850D01*
X42000Y179350D02*X42500Y179850D01*
X40500Y179350D02*X42000D01*
X40000Y179850D02*X40500Y179350D01*
X45700Y183350D02*X46200Y182850D01*
X44200Y183350D02*X45700D01*
X43700Y182850D02*X44200Y183350D01*
X43700Y182850D02*Y181850D01*
X44200Y181350D01*
X45700D01*
X46200Y180850D01*
Y179850D01*
X45700Y179350D02*X46200Y179850D01*
X44200Y179350D02*X45700D01*
X43700Y179850D02*X44200Y179350D01*
X49200Y179850D02*X49700Y179350D01*
X49200Y180650D02*Y179850D01*
Y180650D02*X49900Y181350D01*
X50500D01*
X51200Y180650D01*
Y179850D01*
X50700Y179350D02*X51200Y179850D01*
X49700Y179350D02*X50700D01*
X49200Y182050D02*X49900Y181350D01*
X49200Y182850D02*Y182050D01*
Y182850D02*X49700Y183350D01*
X50700D01*
X51200Y182850D01*
Y182050D01*
X50500Y181350D02*X51200Y182050D01*
X40000Y173350D02*X41000D01*
X40500D02*Y169350D01*
X40000D02*X41000D01*
X42700Y173350D02*Y169350D01*
X44000Y173350D02*X44700Y172650D01*
Y170050D01*
X44000Y169350D02*X44700Y170050D01*
X42200Y169350D02*X44000D01*
X42200Y173350D02*X44000D01*
X45900Y169350D02*X48400Y173350D01*
X45900D02*X48400Y169350D01*
X51400Y169850D02*X51900Y169350D01*
X51400Y170650D02*Y169850D01*
Y170650D02*X52100Y171350D01*
X52700D01*
X53400Y170650D01*
Y169850D01*
X52900Y169350D02*X53400Y169850D01*
X51900Y169350D02*X52900D01*
X51400Y172050D02*X52100Y171350D01*
X51400Y172850D02*Y172050D01*
Y172850D02*X51900Y173350D01*
X52900D01*
X53400Y172850D01*
Y172050D01*
X52700Y171350D02*X53400Y172050D01*
X40000Y153350D02*X41000D01*
X40500D02*Y149350D01*
X40000D02*X41000D01*
X42700Y153350D02*Y149350D01*
X44000Y153350D02*X44700Y152650D01*
Y150050D01*
X44000Y149350D02*X44700Y150050D01*
X42200Y149350D02*X44000D01*
X42200Y153350D02*X44000D01*
X45900Y149350D02*X48400Y153350D01*
X45900D02*X48400Y149350D01*
X51400Y153350D02*X53400D01*
X51400D02*Y151350D01*
X51900Y151850D01*
X52900D01*
X53400Y151350D01*
Y149850D01*
X52900Y149350D02*X53400Y149850D01*
X51900Y149350D02*X52900D01*
X51400Y149850D02*X51900Y149350D01*
X77500Y163360D02*X78490D01*
X77995D02*Y159400D01*
X77500D02*X78490D01*
X80173Y163360D02*Y159400D01*
X81460Y163360D02*X82153Y162667D01*
Y160093D01*
X81460Y159400D02*X82153Y160093D01*
X79678Y159400D02*X81460D01*
X79678Y163360D02*X81460D01*
X83341Y159400D02*X85816Y163360D01*
X83341D02*X85816Y159400D01*
X77995Y133360D02*Y129400D01*
X79282Y133360D02*X79975Y132667D01*
Y130093D01*
X79282Y129400D02*X79975Y130093D01*
X77500Y129400D02*X79282D01*
X77500Y133360D02*X79282D01*
X83143D02*X83638Y132865D01*
X81658Y133360D02*X83143D01*
X81163Y132865D02*X81658Y133360D01*
X81163Y132865D02*Y131875D01*
X81658Y131380D01*
X83143D01*
X83638Y130885D01*
Y129895D01*
X83143Y129400D02*X83638Y129895D01*
X81658Y129400D02*X83143D01*
X81163Y129895D02*X81658Y129400D01*
X42000Y93350D02*X42500Y92850D01*
X40500Y93350D02*X42000D01*
X40000Y92850D02*X40500Y93350D01*
X40000Y92850D02*Y91850D01*
X40500Y91350D01*
X42000D01*
X42500Y90850D01*
Y89850D01*
X42000Y89350D02*X42500Y89850D01*
X40500Y89350D02*X42000D01*
X40000Y89850D02*X40500Y89350D01*
X43700Y93350D02*X45700D01*
X44700D02*Y89350D01*
X46900Y91550D02*X48400D01*
X46900Y89350D02*X48900D01*
X46900Y93350D02*Y89350D01*
Y93350D02*X48900D01*
X50600D02*Y89350D01*
X50100Y93350D02*X52100D01*
X52600Y92850D01*
Y91850D01*
X52100Y91350D02*X52600Y91850D01*
X50600Y91350D02*X52100D01*
X79480Y103360D02*X79975Y102865D01*
X77995Y103360D02*X79480D01*
X77500Y102865D02*X77995Y103360D01*
X77500Y102865D02*Y101875D01*
X77995Y101380D01*
X79480D01*
X79975Y100885D01*
Y99895D01*
X79480Y99400D02*X79975Y99895D01*
X77995Y99400D02*X79480D01*
X77500Y99895D02*X77995Y99400D01*
X83143Y103360D02*X83638Y102865D01*
X81658Y103360D02*X83143D01*
X81163Y102865D02*X81658Y103360D01*
X81163Y102865D02*Y101875D01*
X81658Y101380D01*
X83143D01*
X83638Y100885D01*
Y99895D01*
X83143Y99400D02*X83638Y99895D01*
X81658Y99400D02*X83143D01*
X81163Y99895D02*X81658Y99400D01*
X40000Y73350D02*Y71350D01*
X40500Y69350D01*
X41500Y71350D01*
X42500Y69350D01*
X43000Y71350D01*
Y73350D02*Y71350D01*
X44200Y73350D02*X46200D01*
X46700Y72850D01*
Y71850D01*
X46200Y71350D02*X46700Y71850D01*
X44700Y71350D02*X46200D01*
X44700Y73350D02*Y69350D01*
X45500Y71350D02*X46700Y69350D01*
X49700Y71550D02*X51200D01*
X49700Y69350D02*X51700D01*
X49700Y73350D02*Y69350D01*
Y73350D02*X51700D01*
X52900D02*Y69350D01*
Y73350D02*X55400Y69350D01*
Y73350D02*Y69350D01*
X40000Y83350D02*Y81350D01*
X40500Y79350D01*
X41500Y81350D01*
X42500Y79350D01*
X43000Y81350D01*
Y83350D02*Y81350D01*
X44200Y83350D02*X46200D01*
X46700Y82850D01*
Y81850D01*
X46200Y81350D02*X46700Y81850D01*
X44700Y81350D02*X46200D01*
X44700Y83350D02*Y79350D01*
X45500Y81350D02*X46700Y79350D01*
X50200Y83350D02*Y79350D01*
X51500Y83350D02*X52200Y82650D01*
Y80050D01*
X51500Y79350D02*X52200Y80050D01*
X49700Y79350D02*X51500D01*
X49700Y83350D02*X51500D01*
X53400Y82350D02*Y79350D01*
Y82350D02*X54100Y83350D01*
X55200D01*
X55900Y82350D01*
Y79350D01*
X53400Y81350D02*X55900D01*
X57100Y83350D02*X59100D01*
X58100D02*Y79350D01*
X60300Y82350D02*Y79350D01*
Y82350D02*X61000Y83350D01*
X62100D01*
X62800Y82350D01*
Y79350D01*
X60300Y81350D02*X62800D01*
X40000Y63350D02*X42000D01*
X41000D02*Y59350D01*
X43200Y63350D02*X45200D01*
X45700Y62850D01*
Y61850D01*
X45200Y61350D02*X45700Y61850D01*
X43700Y61350D02*X45200D01*
X43700Y63350D02*Y59350D01*
X44500Y61350D02*X45700Y59350D01*
X46900Y63350D02*Y59350D01*
Y61350D02*X48900Y63350D01*
X46900Y61350D02*X48900Y59350D01*
X51900Y59850D02*X52400Y59350D01*
X51900Y62850D02*Y59850D01*
Y62850D02*X52400Y63350D01*
X53400D01*
X53900Y62850D01*
Y59850D01*
X53400Y59350D02*X53900Y59850D01*
X52400Y59350D02*X53400D01*
X51900Y60350D02*X53900Y62350D01*
X40000Y53350D02*Y51350D01*
X40500Y49350D01*
X41500Y51350D01*
X42500Y49350D01*
X43000Y51350D01*
Y53350D02*Y51350D01*
X44200Y53350D02*X46200D01*
X46700Y52850D01*
Y51850D01*
X46200Y51350D02*X46700Y51850D01*
X44700Y51350D02*X46200D01*
X44700Y53350D02*Y49350D01*
X45500Y51350D02*X46700Y49350D01*
X50200Y53350D02*Y49350D01*
X49700Y53350D02*X51700D01*
X52200Y52850D01*
Y51850D01*
X51700Y51350D02*X52200Y51850D01*
X50200Y51350D02*X51700D01*
X53400Y53350D02*X55400D01*
X55900Y52850D01*
Y51850D01*
X55400Y51350D02*X55900Y51850D01*
X53900Y51350D02*X55400D01*
X53900Y53350D02*Y49350D01*
X54700Y51350D02*X55900Y49350D01*
X57100Y52850D02*Y49850D01*
Y52850D02*X57600Y53350D01*
X58600D01*
X59100Y52850D01*
Y49850D01*
X58600Y49350D02*X59100Y49850D01*
X57600Y49350D02*X58600D01*
X57100Y49850D02*X57600Y49350D01*
X60300Y53350D02*X62300D01*
X61300D02*Y49350D01*
X40000Y43350D02*X42000D01*
X42500Y42850D01*
Y41850D01*
X42000Y41350D02*X42500Y41850D01*
X40500Y41350D02*X42000D01*
X40500Y43350D02*Y39350D01*
X41300Y41350D02*X42500Y39350D01*
X44200Y43350D02*Y39350D01*
X45500Y43350D02*X46200Y42650D01*
Y40050D01*
X45500Y39350D02*X46200Y40050D01*
X43700Y39350D02*X45500D01*
X43700Y43350D02*X45500D01*
X49700D02*Y39350D01*
X51000Y43350D02*X51700Y42650D01*
Y40050D01*
X51000Y39350D02*X51700Y40050D01*
X49200Y39350D02*X51000D01*
X49200Y43350D02*X51000D01*
X52900Y42350D02*Y39350D01*
Y42350D02*X53600Y43350D01*
X54700D01*
X55400Y42350D01*
Y39350D01*
X52900Y41350D02*X55400D01*
X56600Y43350D02*X58600D01*
X57600D02*Y39350D01*
X59800Y42350D02*Y39350D01*
Y42350D02*X60500Y43350D01*
X61600D01*
X62300Y42350D01*
Y39350D01*
X59800Y41350D02*X62300D01*
X42000Y33350D02*X42500Y32850D01*
X40500Y33350D02*X42000D01*
X40000Y32850D02*X40500Y33350D01*
X40000Y32850D02*Y31850D01*
X40500Y31350D01*
X42000D01*
X42500Y30850D01*
Y29850D01*
X42000Y29350D02*X42500Y29850D01*
X40500Y29350D02*X42000D01*
X40000Y29850D02*X40500Y29350D01*
X45700Y33350D02*X46200Y32850D01*
X44200Y33350D02*X45700D01*
X43700Y32850D02*X44200Y33350D01*
X43700Y32850D02*Y31850D01*
X44200Y31350D01*
X45700D01*
X46200Y30850D01*
Y29850D01*
X45700Y29350D02*X46200Y29850D01*
X44200Y29350D02*X45700D01*
X43700Y29850D02*X44200Y29350D01*
X49200Y33350D02*X51200D01*
X49200D02*Y31350D01*
X49700Y31850D01*
X50700D01*
X51200Y31350D01*
Y29850D01*
X50700Y29350D02*X51200Y29850D01*
X49700Y29350D02*X50700D01*
X49200Y29850D02*X49700Y29350D01*
X185000Y6850D02*X385000D01*
Y26850D02*Y6850D01*
X185000Y26850D02*X385000D01*
X185000D02*Y6850D01*
X195000Y16850D02*Y6850D01*
X185000Y16850D02*X195000D01*
X165000Y26850D02*G75*G03X165000Y26850I0J-10000D01*G01*
G54D103*X265000Y126850D02*X285000D01*
Y116850D01*
X265000D02*X285000D01*
X265000Y126850D02*Y116850D01*
X255000Y121850D02*X265000D01*
X285000D02*X295000D01*
X265000Y146850D02*X285000D01*
Y136850D01*
X265000D01*
Y146850D01*
X255000Y141850D02*X265000D01*
X285000D02*X295000D01*
X265000Y126850D02*X285000D01*
X265000Y136850D02*Y126850D01*
Y136850D02*X285000D01*
Y126850D01*
Y131850D02*X295000D01*
X255000D02*X265000D01*
Y86850D02*X285000D01*
X265000Y96850D02*Y86850D01*
Y96850D02*X285000D01*
Y86850D01*
Y91850D02*X295000D01*
X255000D02*X265000D01*
Y96850D02*X285000D01*
X265000Y106850D02*Y96850D01*
Y106850D02*X285000D01*
Y96850D01*
Y101850D02*X295000D01*
X255000D02*X265000D01*
X350000Y71850D02*X370000D01*
Y61850D01*
X350000D01*
Y71850D01*
X340000Y66850D02*X350000D01*
X370000D02*X380000D01*
X350000Y81850D02*X370000D01*
Y71850D01*
X350000D01*
Y81850D01*
X340000Y76850D02*X350000D01*
X370000D02*X380000D01*
X350000Y51850D02*X370000D01*
X350000Y61850D02*Y51850D01*
Y61850D02*X370000D01*
Y51850D01*
Y56850D02*X380000D01*
X340000D02*X350000D01*
Y116850D02*X370000D01*
Y106850D01*
X350000D01*
Y116850D01*
X340000Y111850D02*X350000D01*
X370000D02*X380000D01*
X350000Y106850D02*X370000D01*
Y96850D01*
X350000D01*
Y106850D01*
X340000Y101850D02*X350000D01*
X370000D02*X380000D01*
X350000Y161850D02*X370000D01*
Y151850D01*
X350000D01*
Y161850D01*
X340000Y156850D02*X350000D01*
X370000D02*X380000D01*
X350000Y181850D02*X370000D01*
Y171850D01*
X350000D01*
Y181850D01*
X340000Y176850D02*X350000D01*
X370000D02*X380000D01*
X350000Y171850D02*X370000D01*
Y161850D01*
X350000D01*
Y171850D01*
X340000Y166850D02*X350000D01*
X370000D02*X380000D01*
G54D102*X227500Y39350D02*G75*G03X227500Y39350I5000J0D01*G01*
X257500Y74350D02*G75*G03X257500Y74350I5000J0D01*G01*
X15000Y186850D02*Y16850D01*
X35000D01*
Y186850D01*
X15000D01*
Y176850D02*X25000D01*
Y186850D01*
X65000Y146850D02*Y116850D01*
X75000D01*
Y146850D01*
X65000D01*
Y136850D02*X75000D01*
Y146850D01*
X65000Y176850D02*Y146850D01*
X75000D01*
Y176850D01*
X65000D01*
Y166850D02*X75000D01*
Y176850D01*
X65000Y116850D02*Y86850D01*
X75000D01*
Y116850D01*
X65000D01*
Y106850D02*X75000D01*
Y116850D01*
X65000Y36850D02*G75*G03X65000Y36850I5000J0D01*G01*
X72283Y69419D02*G75*G03X72283Y69419I5000J0D01*G01*
X101980Y136819D02*X111980D01*
Y166819D02*Y136819D01*
X101980Y166819D02*X111980D01*
X101980D02*Y136819D01*
X115000Y126850D02*X185000D01*
Y166850D02*Y126850D01*
X115000Y166850D02*X185000D01*
X115000Y141850D02*Y126850D01*
Y166850D02*Y151850D01*
Y141850D02*G75*G03X115000Y151850I0J5000D01*G01*
Y51850D02*X185000D01*
Y91850D02*Y51850D01*
X115000Y91850D02*X185000D01*
X115000Y66850D02*Y51850D01*
Y91850D02*Y76850D01*
Y66850D02*G75*G03X115000Y76850I0J5000D01*G01*
X102500Y61850D02*X112500D01*
Y91850D02*Y61850D01*
X102500Y91850D02*X112500D01*
X102500D02*Y61850D01*
X197500Y56850D02*G75*G03X197500Y56850I5000J0D01*G01*
X162500Y99350D02*G75*G03X162500Y99350I5000J0D01*G01*
X207500Y39350D02*G75*G03X207500Y39350I5000J0D01*G01*
X85000Y59350D02*G75*G03X85000Y59350I5000J0D01*G01*
X167500Y181850D02*G75*G03X167500Y181850I5000J0D01*G01*
X102500Y129350D02*G75*G03X102500Y129350I5000J0D01*G01*
X185700Y31850D02*X186500D01*
Y28350D01*
X186000Y27850D02*X186500Y28350D01*
X185500Y27850D02*X186000D01*
X185000Y28350D02*X185500Y27850D01*
X185000Y28850D02*Y28350D01*
X187700Y31850D02*X189700D01*
X187700D02*Y29850D01*
X188200Y30350D01*
X189200D01*
X189700Y29850D01*
Y28350D01*
X189200Y27850D02*X189700Y28350D01*
X188200Y27850D02*X189200D01*
X187700Y28350D02*X188200Y27850D01*
X148552Y24702D02*Y23402D01*
X149252Y25402D02*X148552Y24702D01*
X149252Y25402D02*X151852D01*
X152552Y24702D01*
Y23402D01*
X152052Y22202D02*X152552Y21702D01*
Y20702D01*
X152052Y20202D01*
X148552Y20702D02*X149052Y20202D01*
X148552Y21702D02*Y20702D01*
X149052Y22202D02*X148552Y21702D01*
X150752D02*Y20702D01*
X151252Y20202D02*X152052D01*
X149052D02*X150252D01*
X150752Y20702D01*
X151252Y20202D02*X150752Y20702D01*
X176000Y102350D02*X178000D01*
X177000D02*Y98350D01*
X179700Y102350D02*Y98350D01*
X179200Y102350D02*X181200D01*
X181700Y101850D01*
Y100850D01*
X181200Y100350D02*X181700Y100850D01*
X179700Y100350D02*X181200D01*
X184400Y102350D02*X184900Y101850D01*
X183400Y102350D02*X184400D01*
X182900Y101850D02*X183400Y102350D01*
X182900Y101850D02*Y98850D01*
X183400Y98350D01*
X184400Y100550D02*X184900Y100050D01*
X182900Y100550D02*X184400D01*
X183400Y98350D02*X184400D01*
X184900Y98850D01*
Y100050D02*Y98850D01*
X196000Y42350D02*X198000D01*
X197000D02*Y38350D01*
X199700Y42350D02*Y38350D01*
X199200Y42350D02*X201200D01*
X201700Y41850D01*
Y40850D01*
X201200Y40350D02*X201700Y40850D01*
X199700Y40350D02*X201200D01*
X202900Y42350D02*X204900D01*
X202900D02*Y40350D01*
X203400Y40850D01*
X204400D01*
X204900Y40350D01*
Y38850D01*
X204400Y38350D02*X204900Y38850D01*
X203400Y38350D02*X204400D01*
X202900Y38850D02*X203400Y38350D01*
X181000Y184850D02*X183000D01*
X182000D02*Y180850D01*
X184700Y184850D02*Y180850D01*
X184200Y184850D02*X186200D01*
X186700Y184350D01*
Y183350D01*
X186200Y182850D02*X186700Y183350D01*
X184700Y182850D02*X186200D01*
X187900Y184350D02*X188400Y184850D01*
X189900D01*
X190400Y184350D01*
Y183350D01*
X187900Y180850D02*X190400Y183350D01*
X187900Y180850D02*X190400D01*
X352000Y67850D02*X354000D01*
X354500Y67350D01*
Y66350D01*
X354000Y65850D02*X354500Y66350D01*
X352500Y65850D02*X354000D01*
X352500Y67850D02*Y63850D01*
X353300Y65850D02*X354500Y63850D01*
X355700Y67050D02*X356500Y67850D01*
Y63850D01*
X355700D02*X357200D01*
X358400Y67350D02*X358900Y67850D01*
X360400D01*
X360900Y67350D01*
Y66350D01*
X358400Y63850D02*X360900Y66350D01*
X358400Y63850D02*X360900D01*
X125000Y72850D02*Y69350D01*
X125500Y68850D01*
X126500D01*
X127000Y69350D01*
Y72850D02*Y69350D01*
X128200Y72350D02*X128700Y72850D01*
X130200D01*
X130700Y72350D01*
Y71350D01*
X128200Y68850D02*X130700Y71350D01*
X128200Y68850D02*X130700D01*
X261000Y67350D02*X263000D01*
X262000D02*Y63350D01*
X264700Y67350D02*Y63350D01*
X264200Y67350D02*X266200D01*
X266700Y66850D01*
Y65850D01*
X266200Y65350D02*X266700Y65850D01*
X264700Y65350D02*X266200D01*
X267900Y66850D02*X268400Y67350D01*
X269400D01*
X269900Y66850D01*
X269400Y63350D02*X269900Y63850D01*
X268400Y63350D02*X269400D01*
X267900Y63850D02*X268400Y63350D01*
Y65550D02*X269400D01*
X269900Y66850D02*Y66050D01*
Y65050D02*Y63850D01*
Y65050D02*X269400Y65550D01*
X269900Y66050D02*X269400Y65550D01*
X352000Y77850D02*X354000D01*
X354500Y77350D01*
Y76350D01*
X354000Y75850D02*X354500Y76350D01*
X352500Y75850D02*X354000D01*
X352500Y77850D02*Y73850D01*
X353300Y75850D02*X354500Y73850D01*
X355700Y77050D02*X356500Y77850D01*
Y73850D01*
X355700D02*X357200D01*
X358400Y77350D02*X358900Y77850D01*
X359900D01*
X360400Y77350D01*
X359900Y73850D02*X360400Y74350D01*
X358900Y73850D02*X359900D01*
X358400Y74350D02*X358900Y73850D01*
Y76050D02*X359900D01*
X360400Y77350D02*Y76550D01*
Y75550D02*Y74350D01*
Y75550D02*X359900Y76050D01*
X360400Y76550D02*X359900Y76050D01*
X352000Y112850D02*X354000D01*
X354500Y112350D01*
Y111350D01*
X354000Y110850D02*X354500Y111350D01*
X352500Y110850D02*X354000D01*
X352500Y112850D02*Y108850D01*
X353300Y110850D02*X354500Y108850D01*
X355700Y112350D02*X356200Y112850D01*
X357200D01*
X357700Y112350D01*
X357200Y108850D02*X357700Y109350D01*
X356200Y108850D02*X357200D01*
X355700Y109350D02*X356200Y108850D01*
Y111050D02*X357200D01*
X357700Y112350D02*Y111550D01*
Y110550D02*Y109350D01*
Y110550D02*X357200Y111050D01*
X357700Y111550D02*X357200Y111050D01*
X352000Y102850D02*X354000D01*
X354500Y102350D01*
Y101350D01*
X354000Y100850D02*X354500Y101350D01*
X352500Y100850D02*X354000D01*
X352500Y102850D02*Y98850D01*
X353300Y100850D02*X354500Y98850D01*
X355700Y100350D02*X357700Y102850D01*
X355700Y100350D02*X358200D01*
X357700Y102850D02*Y98850D01*
X352000Y157850D02*X354000D01*
X354500Y157350D01*
Y156350D01*
X354000Y155850D02*X354500Y156350D01*
X352500Y155850D02*X354000D01*
X352500Y157850D02*Y153850D01*
X353300Y155850D02*X354500Y153850D01*
X355700Y157350D02*X356200Y157850D01*
X357700D01*
X358200Y157350D01*
Y156350D01*
X355700Y153850D02*X358200Y156350D01*
X355700Y153850D02*X358200D01*
X352000Y177850D02*X354000D01*
X354500Y177350D01*
Y176350D01*
X354000Y175850D02*X354500Y176350D01*
X352500Y175850D02*X354000D01*
X352500Y177850D02*Y173850D01*
X353300Y175850D02*X354500Y173850D01*
X355700Y177850D02*X357700D01*
X355700D02*Y175850D01*
X356200Y176350D01*
X357200D01*
X357700Y175850D01*
Y174350D01*
X357200Y173850D02*X357700Y174350D01*
X356200Y173850D02*X357200D01*
X355700Y174350D02*X356200Y173850D01*
X352000Y167850D02*X354000D01*
X354500Y167350D01*
Y166350D01*
X354000Y165850D02*X354500Y166350D01*
X352500Y165850D02*X354000D01*
X352500Y167850D02*Y163850D01*
X353300Y165850D02*X354500Y163850D01*
X355700Y167050D02*X356500Y167850D01*
Y163850D01*
X355700D02*X357200D01*
X352000Y57850D02*X354000D01*
X354500Y57350D01*
Y56350D01*
X354000Y55850D02*X354500Y56350D01*
X352500Y55850D02*X354000D01*
X352500Y57850D02*Y53850D01*
X353300Y55850D02*X354500Y53850D01*
X355700Y54350D02*X356200Y53850D01*
X355700Y55150D02*Y54350D01*
Y55150D02*X356400Y55850D01*
X357000D01*
X357700Y55150D01*
Y54350D01*
X357200Y53850D02*X357700Y54350D01*
X356200Y53850D02*X357200D01*
X355700Y56550D02*X356400Y55850D01*
X355700Y57350D02*Y56550D01*
Y57350D02*X356200Y57850D01*
X357200D01*
X357700Y57350D01*
Y56550D01*
X357000Y55850D02*X357700Y56550D01*
X211000Y59850D02*X213000D01*
X212000D02*Y55850D01*
X214700Y59850D02*Y55850D01*
X214200Y59850D02*X216200D01*
X216700Y59350D01*
Y58350D01*
X216200Y57850D02*X216700Y58350D01*
X214700Y57850D02*X216200D01*
X218400Y55850D02*X220400Y59850D01*
X217900D02*X220400D01*
X238500Y44850D02*X240500D01*
X239500D02*Y40850D01*
X242200Y44850D02*Y40850D01*
X241700Y44850D02*X243700D01*
X244200Y44350D01*
Y43350D01*
X243700Y42850D02*X244200Y43350D01*
X242200Y42850D02*X243700D01*
X245400Y42350D02*X247400Y44850D01*
X245400Y42350D02*X247900D01*
X247400Y44850D02*Y40850D01*
X267514Y133285D02*X269514D01*
X270014Y132785D01*
Y131785D01*
X269514Y131285D02*X270014Y131785D01*
X268014Y131285D02*X269514D01*
X268014Y133285D02*Y129285D01*
X268814Y131285D02*X270014Y129285D01*
X271714D02*X273214Y131285D01*
Y132785D02*Y131285D01*
X272714Y133285D02*X273214Y132785D01*
X271714Y133285D02*X272714D01*
X271214Y132785D02*X271714Y133285D01*
X271214Y132785D02*Y131785D01*
X271714Y131285D01*
X273214D01*
X267557Y93285D02*X269557D01*
X270057Y92785D01*
Y91785D01*
X269557Y91285D02*X270057Y91785D01*
X268057Y91285D02*X269557D01*
X268057Y93285D02*Y89285D01*
X268857Y91285D02*X270057Y89285D01*
X271257Y92485D02*X272057Y93285D01*
Y89285D01*
X271257D02*X272757D01*
X273957Y89785D02*X274457Y89285D01*
X273957Y92785D02*Y89785D01*
Y92785D02*X274457Y93285D01*
X275457D01*
X275957Y92785D01*
Y89785D01*
X275457Y89285D02*X275957Y89785D01*
X274457Y89285D02*X275457D01*
X273957Y90285D02*X275957Y92285D01*
X267470Y103372D02*X269470D01*
X269970Y102872D01*
Y101872D01*
X269470Y101372D02*X269970Y101872D01*
X267970Y101372D02*X269470D01*
X267970Y103372D02*Y99372D01*
X268770Y101372D02*X269970Y99372D01*
X271170Y102572D02*X271970Y103372D01*
Y99372D01*
X271170D02*X272670D01*
X273870Y102572D02*X274670Y103372D01*
Y99372D01*
X273870D02*X275370D01*
X267000Y122850D02*X269000D01*
X269500Y122350D01*
Y121350D01*
X269000Y120850D02*X269500Y121350D01*
X267500Y120850D02*X269000D01*
X267500Y122850D02*Y118850D01*
X268300Y120850D02*X269500Y118850D01*
X272200Y122850D02*X272700Y122350D01*
X271200Y122850D02*X272200D01*
X270700Y122350D02*X271200Y122850D01*
X270700Y122350D02*Y119350D01*
X271200Y118850D01*
X272200Y121050D02*X272700Y120550D01*
X270700Y121050D02*X272200D01*
X271200Y118850D02*X272200D01*
X272700Y119350D01*
Y120550D02*Y119350D01*
X267000Y142850D02*X269000D01*
X269500Y142350D01*
Y141350D01*
X269000Y140850D02*X269500Y141350D01*
X267500Y140850D02*X269000D01*
X267500Y142850D02*Y138850D01*
X268300Y140850D02*X269500Y138850D01*
X271200D02*X273200Y142850D01*
X270700D02*X273200D01*
X15700Y191850D02*X16500D01*
Y188350D01*
X16000Y187850D02*X16500Y188350D01*
X15500Y187850D02*X16000D01*
X15000Y188350D02*X15500Y187850D01*
X15000Y188850D02*Y188350D01*
X17700Y191050D02*X18500Y191850D01*
Y187850D01*
X17700D02*X19200D01*
X80000Y146150D02*Y145350D01*
X76500D02*X80000D01*
X76000Y145850D02*X76500Y145350D01*
X76000Y146350D02*Y145850D01*
X76500Y146850D02*X76000Y146350D01*
X76500Y146850D02*X77000D01*
X79500Y144150D02*X80000Y143650D01*
Y142650D01*
X79500Y142150D01*
X76000Y142650D02*X76500Y142150D01*
X76000Y143650D02*Y142650D01*
X76500Y144150D02*X76000Y143650D01*
X78200D02*Y142650D01*
X78700Y142150D02*X79500D01*
X76500D02*X77700D01*
X78200Y142650D01*
X78700Y142150D02*X78200Y142650D01*
X80000Y176150D02*Y175350D01*
X76500D02*X80000D01*
X76000Y175850D02*X76500Y175350D01*
X76000Y176350D02*Y175850D01*
X76500Y176850D02*X76000Y176350D01*
X76500Y176850D02*X77000D01*
X79500Y174150D02*X80000Y173650D01*
Y172150D01*
X79500Y171650D01*
X78500D02*X79500D01*
X76000Y174150D02*X78500Y171650D01*
X76000Y174150D02*Y171650D01*
X96121Y147882D02*Y145932D01*
X95071Y144882D02*X96121Y145932D01*
X91171Y144882D02*X95071D01*
X91171D02*X90121Y145932D01*
Y147882D02*Y145932D01*
X91321Y149682D02*X90121Y150882D01*
X96121D01*
Y151932D02*Y149682D01*
X80000Y116150D02*Y115350D01*
X76500D02*X80000D01*
X76000Y115850D02*X76500Y115350D01*
X76000Y116350D02*Y115850D01*
X76500Y116850D02*X76000Y116350D01*
X76500Y116850D02*X77000D01*
X77500Y114150D02*X80000Y112150D01*
X77500Y114150D02*Y111650D01*
X76000Y112150D02*X80000D01*
X125000Y147850D02*Y144350D01*
X125500Y143850D01*
X126500D01*
X127000Y144350D01*
Y147850D02*Y144350D01*
X128200Y147050D02*X129000Y147850D01*
Y143850D01*
X128200D02*X129700D01*
X100600Y85350D02*Y83400D01*
X99550Y82350D02*X100600Y83400D01*
X95650Y82350D02*X99550D01*
X95650D02*X94600Y83400D01*
Y85350D02*Y83400D01*
X95350Y87150D02*X94600Y87900D01*
Y90150D02*Y87900D01*
Y90150D02*X95350Y90900D01*
X96850D01*
X100600Y87150D02*X96850Y90900D01*
X100600D02*Y87150D01*
X103500Y122350D02*X105500D01*
X104500D02*Y118350D01*
X107200Y122350D02*Y118350D01*
X106700Y122350D02*X108700D01*
X109200Y121850D01*
Y120850D01*
X108700Y120350D02*X109200Y120850D01*
X107200Y120350D02*X108700D01*
X110400Y121550D02*X111200Y122350D01*
Y118350D01*
X110400D02*X111900D01*
X66000Y29850D02*X68000D01*
X67000D02*Y25850D01*
X69700Y29850D02*Y25850D01*
X69200Y29850D02*X71200D01*
X71700Y29350D01*
Y28350D01*
X71200Y27850D02*X71700Y28350D01*
X69700Y27850D02*X71200D01*
X72900Y29050D02*X73700Y29850D01*
Y25850D01*
X72900D02*X74400D01*
X75600Y26350D02*X76100Y25850D01*
X75600Y29350D02*Y26350D01*
Y29350D02*X76100Y29850D01*
X77100D01*
X77600Y29350D01*
Y26350D01*
X77100Y25850D02*X77600Y26350D01*
X76100Y25850D02*X77100D01*
X75600Y26850D02*X77600Y28850D01*
X73283Y79919D02*X75283D01*
X74283D02*Y75919D01*
X76983Y79919D02*Y75919D01*
X76483Y79919D02*X78483D01*
X78983Y79419D01*
Y78419D01*
X78483Y77919D02*X78983Y78419D01*
X76983Y77919D02*X78483D01*
X80183Y76419D02*X80683Y75919D01*
X80183Y77219D02*Y76419D01*
Y77219D02*X80883Y77919D01*
X81483D01*
X82183Y77219D01*
Y76419D01*
X81683Y75919D02*X82183Y76419D01*
X80683Y75919D02*X81683D01*
X80183Y78619D02*X80883Y77919D01*
X80183Y79419D02*Y78619D01*
Y79419D02*X80683Y79919D01*
X81683D01*
X82183Y79419D01*
Y78619D01*
X81483Y77919D02*X82183Y78619D01*
X83500Y52350D02*X85500D01*
X84500D02*Y48350D01*
X87200Y52350D02*Y48350D01*
X86700Y52350D02*X88700D01*
X89200Y51850D01*
Y50850D01*
X88700Y50350D02*X89200Y50850D01*
X87200Y50350D02*X88700D01*
X90400Y51550D02*X91200Y52350D01*
Y48350D01*
X90400D02*X91900D01*
X93100Y51550D02*X93900Y52350D01*
Y48350D01*
X93100D02*X94600D01*
M02*
